HIERARCHY
ROOT Hips
{
	OFFSET -80.168388 91.772041 -268.984589
	CHANNELS 6 Xposition Yposition Zposition Zrotation Yrotation Xrotation 
	JOINT LeftUpLeg
	{
		OFFSET 0.103457 1.857818 10.548502
		CHANNELS 3 Zrotation Yrotation Xrotation
		JOINT LeftLeg
		{
			OFFSET 43.500000 -0.000011 -0.000004
			CHANNELS 3 Zrotation Yrotation Xrotation
			JOINT LeftFoot
			{
				OFFSET 42.372192 -0.000004 -0.000008
				CHANNELS 3 Zrotation Yrotation Xrotation
				JOINT LeftToe
				{
					OFFSET 17.300014 0.000006 0.000001
					CHANNELS 3 Zrotation Yrotation Xrotation
					End Site
					{
						OFFSET 0.000000 0.000000 0.000000
					}
				}
			}
		}
	}
	JOINT RightUpLeg
	{
		OFFSET 0.103457 1.857817 -10.548505
		CHANNELS 3 Zrotation Yrotation Xrotation
		JOINT RightLeg
		{
			OFFSET 43.500046 -0.000004 0.000011
			CHANNELS 3 Zrotation Yrotation Xrotation
			JOINT RightFoot
			{
				OFFSET 42.372257 0.000000 0.000015
				CHANNELS 3 Zrotation Yrotation Xrotation
				JOINT RightToe
				{
					OFFSET 17.300003 -0.000000 0.000002
					CHANNELS 3 Zrotation Yrotation Xrotation
					End Site
					{
						OFFSET 0.000000 0.000000 0.000000
					}
				}
			}
		}
	}
	JOINT Spine
	{
		OFFSET 6.901961 -2.603721 -0.000001
		CHANNELS 3 Zrotation Yrotation Xrotation
		JOINT Spine1
		{
			OFFSET 12.588108 0.000002 -0.000001
			CHANNELS 3 Zrotation Yrotation Xrotation
			JOINT Spine2
			{
				OFFSET 12.343199 -0.000020 0.000006
				CHANNELS 3 Zrotation Yrotation Xrotation
				JOINT Neck
				{
					OFFSET 25.832905 0.000017 0.000000
					CHANNELS 3 Zrotation Yrotation Xrotation
					JOINT Head
					{
						OFFSET 11.766604 -0.000006 0.000004
						CHANNELS 3 Zrotation Yrotation Xrotation
						End Site
						{
							OFFSET 0.000000 0.000000 0.000000
						}
					}
				}
				JOINT LeftShoulder
				{
					OFFSET 19.745903 -1.480350 6.000100
					CHANNELS 3 Zrotation Yrotation Xrotation
					JOINT LeftArm
					{
						OFFSET 11.284130 -0.000016 -0.000016
						CHANNELS 3 Zrotation Yrotation Xrotation
						JOINT LeftForeArm
						{
							OFFSET 33.000046 0.000004 0.000031
							CHANNELS 3 Zrotation Yrotation Xrotation
							JOINT LeftHand
							{
								OFFSET 25.199999 0.000027 0.000001
								CHANNELS 3 Zrotation Yrotation Xrotation
								End Site
								{
									OFFSET 0.000000 0.000000 0.000000
								}
							}
						}
					}
				}
				JOINT RightShoulder
				{
					OFFSET 19.746094 -1.480375 -6.000080
					CHANNELS 3 Zrotation Yrotation Xrotation
					JOINT RightArm
					{
						OFFSET 11.284131 -0.000016 -0.000017
						CHANNELS 3 Zrotation Yrotation Xrotation
						JOINT RightForeArm
						{
							OFFSET 33.000095 0.000009 0.000020
							CHANNELS 3 Zrotation Yrotation Xrotation
							JOINT RightHand
							{
								OFFSET 25.199789 0.000132 0.000423
								CHANNELS 3 Zrotation Yrotation Xrotation
								End Site
								{
									OFFSET 0.000000 0.000000 0.000000
								}
							}
						}
					}
				}
			}
		}
	}
}
MOTION
Frames: 5
Frame Time: 0.033333
-80.168388 91.772041 -268.984589 92.289188 8.484008 93.481664 -172.430680 -2.864105 179.875887 -9.406624 -2.035541 -6.999868 71.812527 3.449619 -5.221892 21.454553 0.003099 0.000001 -170.557337 6.018487 -169.618773 -11.945731 3.259543 9.503255 78.169903 -5.757787 4.228145 21.454560 -0.003098 -0.000015 7.124312 -0.235605 -0.093465 4.233210 -0.456181 -0.221179 3.915107 -0.459370 -0.218404 4.018447 -9.147273 -5.407112 -19.274179 15.390457 -12.897643 -22.779719 -88.460232 -159.075406 -16.011179 4.783196 -10.846803 -23.096580 -16.467431 1.212365 9.600111 -2.293517 41.243100 -97.045554 85.513798 85.035561 -17.258210 -4.140819 10.526062 -20.484444 15.567693 -1.142368 4.332655 -1.261136 -16.019551 
-80.165520 91.772034 -268.986115 92.289202 8.486945 93.479034 -172.428836 -2.860896 179.875887 -9.406641 -2.033588 -6.999860 71.812520 3.449621 -5.221890 21.454555 0.003097 0.000001 -170.556271 6.020802 -169.622024 -11.945738 3.259542 9.503245 78.168578 -5.757783 4.228153 21.454557 -0.003109 -0.000015 7.124312 -0.235612 -0.093469 4.233209 -0.456174 -0.221179 3.915104 -0.459370 -0.218401 4.026744 -9.147276 -5.412144 -19.283345 15.395038 -12.905259 -22.924637 -88.455540 -158.931248 -16.008271 4.783191 -10.845919 -23.096580 -16.471778 1.212365 9.608024 -2.297438 41.245364 -97.047487 85.513757 85.033506 -17.256960 -4.145340 10.526062 -20.484437 15.567688 -1.142367 4.332653 -1.261131 -16.018887 
-80.150093 91.771820 -268.994598 92.289209 8.504747 93.462690 -172.419274 -2.844489 179.875900 -9.410596 -2.023787 -7.006990 71.812520 3.453926 -5.221894 21.454551 0.003091 -0.000000 -170.547966 6.032710 -169.640384 -11.945740 3.259543 9.503249 78.160143 -5.757780 4.233747 21.454558 -0.003100 -0.000017 7.124306 -0.235608 -0.093476 4.236238 -0.456181 -0.215378 3.918121 -0.454921 -0.212630 4.063467 -9.147279 -5.438422 -19.335748 15.422864 -12.948780 -23.967986 -88.427536 -157.891557 -15.986532 4.788249 -10.794311 -23.094350 -16.520006 1.212375 9.640407 -2.338806 41.177308 -97.019067 85.513716 85.062165 -17.248898 -4.161757 10.515642 -20.484439 15.568638 -1.142368 4.332653 -1.261132 -16.004510 
-80.135132 91.771149 -269.003815 92.289188 8.529119 93.447329 -172.404671 -2.829103 179.875887 -9.419082 -2.016885 -7.015867 71.812527 3.460223 -5.221899 21.454548 0.003087 -0.000000 -170.534155 6.044601 -169.652145 -11.948325 3.259542 9.503260 78.152951 -5.757776 4.239896 21.454557 -0.003104 -0.000019 7.129669 -0.235607 -0.093470 4.246930 -0.456179 -0.210251 3.928829 -0.449754 -0.207534 4.085545 -9.147268 -5.462973 -19.384335 15.444572 -12.989676 -24.903734 -88.402592 -156.959482 -15.957793 4.799115 -10.735819 -23.076732 -16.569414 1.212369 9.635532 -2.421244 41.051103 -96.972178 85.513798 85.109095 -17.234603 -4.160006 10.476462 -20.475404 15.583184 -1.142370 4.332650 -1.261136 -15.977988 
-80.119591 91.770607 -269.016815 92.289188 8.552719 93.433689 -172.388278 -2.811403 179.875887 -9.423829 -2.011653 -7.027196 71.812534 3.470279 -5.215786 21.454550 0.003091 0.000000 -170.526779 6.058300 -169.658921 -11.958613 3.255198 9.503257 78.147172 -5.752495 4.247919 21.454558 -0.003115 -0.000018 7.136659 -0.235602 -0.093467 4.260903 -0.456184 -0.203329 3.942789 -0.445786 -0.200625 4.108526 -9.140746 -5.481781 -19.422992 15.461754 -13.019691 -25.478154 -88.382142 -156.387631 -15.931097 4.809023 -10.736463 -23.051363 -16.582835 1.212355 9.595485 -2.553088 40.934150 -97.016731 85.507473 85.064815 -17.217737 -4.136682 10.435285 -20.468171 15.598631 -1.142368 4.332652 -1.248803 -15.961194 
